<svg xmlns="http://www.w3.org/2000/svg" viewBox="0 0 335 211"><defs><style>.cls-1{fill:#214385;stroke:#fff;stroke-miterlimit:10;}.cls-2{fill:#fdb353;}</style></defs><title>aria-logo</title><g id="Layer_2" data-name="Layer 2"><g id="Layer_1-2" data-name="Layer 1"><rect class="cls-1" x="0.5" y="0.5" width="334" height="210"/><path class="cls-2" d="M25.83,25.5V185H64.16V159.5H84.5V185h39V25.5Zm58.67,80H64.16V62.17H84.5Z"/><rect class="cls-2" x="138.83" y="112.83" width="170" height="26"/><rect class="cls-2" x="138.83" y="159.5" width="170" height="25.5"/><rect class="cls-2" x="205.5" y="25.5" width="41" height="67"/><path class="cls-2" d="M259.5,25.5v67h18V81.84h13.33V92.5h18v-67Zm31.33,36.67H277.5V40.84h13.33Z"/><line class="cls-2" x1="198.33" y1="92.5" x2="197.91" y2="92.5"/><path class="cls-2" d="M187.08,69.5h5.75v-44h-54v67H156.5v-23h13l10.83,23h17.58ZM174.5,53.84h-18v-13h18Z"/></g></g></svg>