<svg id="Layer_1" data-name="Layer 1" xmlns="http://www.w3.org/2000/svg" xmlns:xlink="http://www.w3.org/1999/xlink" viewBox="0 0 647.71 581.86"><defs><style>.cls-1{fill:url(#linear-gradient);}.cls-2{fill:url(#White_Black);}.cls-3{fill:none;}.cls-4{mask:url(#mask);}.cls-5,.cls-7{fill:#231f20;}.cls-6{mask:url(#mask-2);}.cls-7{opacity:0.5;}</style><linearGradient id="linear-gradient" x1="323.85" y1="323.33" x2="323.85" y2="340.74" gradientUnits="userSpaceOnUse"><stop offset="0" stop-color="#fff"/><stop offset="1" stop-color="#231f20"/></linearGradient><linearGradient id="White_Black" x1="325.48" y1="323.2" x2="325.48" y2="581.86" xlink:href="#linear-gradient"/><mask id="mask" x="0" y="0" width="647.71" height="340.45" maskUnits="userSpaceOnUse"><rect class="cls-1" width="647.71" height="340.45"/></mask><mask id="mask-2" x="10.48" y="323.13" width="630" height="258.72" maskUnits="userSpaceOnUse"><rect class="cls-2" x="10.48" y="323.2" width="630" height="258.66"/></mask></defs><title>gondola</title><path class="cls-3" d="M499.07,112.77s-4.37.87-5.37,0S482.76,92.63,482.45,92c.43.25,12,7,13.75,8.62s10.12,7.75,13.87,6.25V109a26.74,26.74,0,0,1-3.37,2.13C506.32,111.14,499.94,109.51,499.07,112.77Z"/><path class="cls-3" d="M511.57,119.14c.75,3.37,1,27.25,1,27.25l-12.75-22v-1.12a7.88,7.88,0,0,0,4.12-1.88c2.38.88,4.38-1.38,5-2.25S511.57,119.14,511.57,119.14Z"/><path class="cls-3" d="M558,245.08s-8.19,0-7.94-.57.75-4.81.75-4.81C553.32,239.2,558,245.08,558,245.08Z"/><path class="cls-3" d="M605.32,151.39s3.31-4.69,5,0,.22,8.12-.81,8.94C606.51,162.7,601.82,156.27,605.32,151.39Z"/><path class="cls-3" d="M627.2,218.7c-18.19,17-55.82,24.07-55.82,24.07.63-3.5,13.38-16.82,13.38-16.82.44,1.44,6.44,4.13,9.44,5.63s3,.93,7.06-2.19,16.12-22.69,16.12-22.69c1.44,3.57,5.32,2.31,5.38,2.57S627.2,218.7,627.2,218.7Z"/><path class="cls-3" d="M558,245.08s-8.19,0-7.94-.57.75-4.81.75-4.81C553.32,239.2,558,245.08,558,245.08Z"/><path class="cls-3" d="M627.2,218.7c-18.19,17-55.82,24.07-55.82,24.07.63-3.5,13.38-16.82,13.38-16.82.44,1.44,6.44,4.13,9.44,5.63s3,.93,7.06-2.19,16.12-22.69,16.12-22.69c1.44,3.57,5.32,2.31,5.38,2.57S627.2,218.7,627.2,218.7Z"/><path class="cls-3" d="M609.51,160.33c-3,2.37-7.69-4.06-4.19-8.94,0,0,3.31-4.69,5,0S610.54,159.51,609.51,160.33Z"/><path class="cls-3" d="M510.07,106.89V109a26.74,26.74,0,0,1-3.37,2.13c-.38,0-6.76-1.63-7.63,1.63,0,0-4.37.87-5.37,0S482.76,92.63,482.45,92c.43.25,12,7,13.75,8.62S506.32,108.39,510.07,106.89Z"/><path class="cls-3" d="M512.57,146.39l-12.75-22v-1.12a7.88,7.88,0,0,0,4.12-1.88c2.38.88,4.38-1.38,5-2.25s2.63,0,2.63,0C512.32,122.51,512.57,146.39,512.57,146.39Z"/><g class="cls-4"><path class="cls-5" d="M644.82,239.14c-5.25-10.5-13.75-33.5-13.75-33.5s3.75-6-2.25-7.25c0,0,1.5-8.25-3.5-8,0,0,4.75-7.75-1.75-8.25,0,0,3.25-7.5-3.5-9,0,0,4.25-10.5-4-9.75,0,0,7.75-29.25-11.5-19.5s-2.5,20.25,3,23.25c0,0-6,11,3.25,11.75,0,0-7.5,5.5,1.5,8.25,0,0-3.25,7.5,2.25,7.5,0,0-.75,4,0,5.5s-26.25-13.75-59.75-24c0,0-13.5-12-17.25-17.75,0,0,8.75-18.25-5-51.25l-.5-9s7-.25,7-1.5c0,0-4.75-16-1-22.25l3.5,12a28.29,28.29,0,0,0,5-1.75s13.5,13.5,7.75,27.5a13.71,13.71,0,0,0,7-4s4.75-10-7.25-24a21.7,21.7,0,0,1-2.78-3.28s3.7-4.55,4.78-7a58.29,58.29,0,0,0-6.33-4.25c-2.67-1.42-7.09-3.67-6.67-8.08,0,0,14,1.08,18.67,4.16s23.75,5.59,26.91,23.34c0,0,4.42-1.34,4.75-5.09a37,37,0,0,0-23.58-23.91c-19.08-6.42-32.33-2.25-39.42-11.17l.59-1.5L531.9,49l.5-2.75a12.37,12.37,0,0,0,3.25-1.83c1.42-1.17,3.5-.5,4.25-1.33a50.68,50.68,0,0,1,2.17,5.16s4.25-.75,5-3.33l1.5,1.75s4.75-.5,4.42-4c0,0-6.09-7.17-8.5-10.75,0,0,1.25-1.67,2.08-1.83,0,0-3.17-.59-3.75-.59s1.17-2.33,1.42-3.58c0,0-1.09-1.58-4.25-1.33l-.17-2.75s4.58-1.5,5.5-3.25.33-8.84-10.5-14.34-20.67-5.58-26.25-.5,3.67,7.09,3.67,7.09v4a14.65,14.65,0,0,0-4.25-.34c-1.67.25-5.42,8.25-4.92,13.25,0,0,1.67-3.83,2.67-4.16,0,0-1.25,3.25-.42,5.08a33.48,33.48,0,0,1,1.75-3.08c.33-.34-.33,5.75-.17,7.25s-1.5,6.66-2.5,7.25-1.5,2,2.17,3.25l-.75,2.75s.58,1.08,1.5,1.16c0,0-.25,1.17.58,1.67s.17,3.25.5,3.67,6.09,1.58,8.67.08,2.25,6.25,1.5,6.92-1.83,1-1.67,3.41c0,0-5.08.25-6.08,3.67s.58,4.5.58,4.5-2.91,3.83-1.83,7.08-5,16-5,16-19.42-8.58-21.42-11.33-5.91-5.25-6.25-6.75-5.08-1.08-5.08-1.08L447.24,30.72s-2.59-1-4-.58-1.84,2.58-.92,4.08,44.58,80.17,44.58,80.17-.58,3.08.92,3.33.67,3.17,1.17,3.25-.09,2.34,1.66,2.42.67,3.08,1.92,3.08,19,31.84,19,31.84,3.92,36.41.83,44.33-7.75,24.42-8.41,25.58-3.75,6.75,1.5,9.09,12.5,1.16,12.5,1.16l.33,6.09s.83,2.08-5,2.75-17.17,1.41-17.17,1.41l.09-3.83s-19.84-.33-20.92.42-1.17,8.33-1.17,8.33-14.91-1.33-15.41.67S457,273.39,457,273.39s-10.5,1.42-12,1.25l-.42-5.42s12-7.16,5.58-22.83-30.41-19.5-32.5-3.92c0,0-7.33,1.42-5.16,6.17,0,0-2.92,4-3.59,5.08a25.74,25.74,0,0,1-5,5.09c-1.41.91-9.25,7.25-6.91,14.83l-213.84.42-2.16-9.5s-82.84-1.34-99.84-10.67-48.66-25-54.5-29.67-3.83-20.66-3.83-20.66,10.17-.67,9.83-7.67-1-24.67-1-24.67,0-7.16-5.83-7.33-15.25,1.5-15.25,1.5-6.5.5-6.5,8.25,1.25,19.25,1.25,19.25.25,11,10.5,10.75c0,0,1,15.75-2,21.75S1.57,252.64,1.57,252.64s-4.25,9.25,1.25,15,76,69.25,76,69.25.75,2,8,2.5,469.25,2.25,476.5-.25c0,0,15-13.31,32.28-30.12,1.67,1.78,3.92,4.57,3,5.87-1.33,2-.17,7.5-.17,7.5l21.67-.83c-2.5-2.17-15.67-9.34-15.67-9.34l-4-8c19.75-19.44,41-42.14,46.09-54.36C646.57,249.89,650.07,249.64,644.82,239.14Zm-35.31-78.81c-3,2.37-7.69-4.06-4.19-8.94,0,0,3.31-4.69,5,0S610.54,159.51,609.51,160.33ZM499.07,112.77s-4.37.87-5.37,0S482.76,92.63,482.45,92c.43.25,12,7,13.75,8.62s10.12,7.75,13.87,6.25V109a26.74,26.74,0,0,1-3.37,2.13C506.32,111.14,499.94,109.51,499.07,112.77Zm.75,11.62v-1.12a7.88,7.88,0,0,0,4.12-1.88c2.38.88,4.38-1.38,5-2.25s2.63,0,2.63,0c.75,3.37,1,27.25,1,27.25Zm50.25,120.12c.25-.56.75-4.81.75-4.81,2.5-.5,7.19,5.38,7.19,5.38S549.82,245.08,550.07,244.51Zm21.31-1.74c.63-3.5,13.38-16.82,13.38-16.82.44,1.44,6.44,4.13,9.44,5.63s3,.93,7.06-2.19,16.12-22.69,16.12-22.69c1.44,3.57,5.32,2.31,5.38,2.57s4.44,9.43,4.44,9.43C609,235.7,571.38,242.77,571.38,242.77Z"/></g><g class="cls-6"><path class="cls-7" d="M637.67,400.13c-5.11,8-13.37,25.45-13.37,25.45s3.64,4.56-2.19,5.51c0,0,1.46,6.27-3.41,6.08,0,0,4.62,5.89-1.7,6.27,0,0,3.16,5.7-3.4,6.84,0,0,4.13,8-3.89,7.41,0,0,7.53,22.23-11.19,14.82s-2.43-15.39,2.92-17.67c0,0-5.84-8.36,3.16-8.93,0,0-7.3-4.18,1.46-6.27,0,0-3.16-5.7,2.19-5.7,0,0-.73-3,0-4.18S582.71,440.21,550.13,448c0,0-13.13,9.12-16.78,13.49,0,0,8.51,13.87-4.86,38.95l-.49,6.84s6.81.19,6.81,1.14c0,0-4.62,12.16-1,16.91l3.4-9.12a33.27,33.27,0,0,1,4.87,1.33s13.13-10.26,7.53-20.9a14.9,14.9,0,0,1,6.81,3s4.62,7.6-7.05,18.24a18.51,18.51,0,0,0-2.7,2.49,37.25,37.25,0,0,1,4.65,5.3,59.59,59.59,0,0,1-6.16,3.23c-2.6,1.07-6.9,2.78-6.49,6.14,0,0,13.62-.82,18.16-3.17S580,527.67,583,514.18c0,0,4.29,1,4.62,3.87,0,0-4.38,13.29-22.94,18.17s-31.45,1.71-38.34,8.48l.57,1.14.89-1.2.48,2.09a13.8,13.8,0,0,1,3.16,1.39c1.39.89,3.41.38,4.14,1a34.4,34.4,0,0,0,2.11-3.92s4.13.57,4.86,2.53l1.46-1.33s4.62.38,4.3,3c0,0-5.92,5.45-8.27,8.17a5.42,5.42,0,0,0,2,1.39s-3.09.45-3.65.45,1.14,1.77,1.38,2.72c0,0-1.06,1.2-4.13,1l-.17,2.09s4.46,1.14,5.35,2.47.32,6.72-10.21,10.9-20.11,4.24-25.54.38,3.57-5.39,3.57-5.39v-3a18,18,0,0,1-4.13.26c-1.62-.19-5.27-6.27-4.78-10.07,0,0,1.62,2.91,2.59,3.16,0,0-1.21-2.47-.41-3.86a23.32,23.32,0,0,0,1.71,2.34c.32.26-.33-4.37-.17-5.51s-1.46-5.06-2.43-5.51-1.46-1.52,2.11-2.47l-.73-2.08a2.15,2.15,0,0,1,1.46-.89,1.1,1.1,0,0,1,.56-1.27c.82-.38.17-2.47.49-2.78s5.92-1.21,8.43-.07,2.19-4.74,1.46-5.25-1.78-.76-1.62-2.6c0,0-4.94-.19-5.92-2.78s.57-3.42.57-3.42-2.83-2.91-1.78-5.38-4.87-12.16-4.87-12.16-18.88,6.52-20.83,8.61-5.75,4-6.08,5.13-4.94.82-4.94.82l-23.91,33.69a10.23,10.23,0,0,1-3.89.44,1.89,1.89,0,0,1-.89-3.1c.89-1.14,43.36-60.92,43.36-60.92s-.57-2.34.89-2.53.65-2.41,1.14-2.47-.09-1.78,1.61-1.84.66-2.34,1.87-2.34,18.48-24.2,18.48-24.2,3.82-27.67.81-33.69-7.54-18.55-8.18-19.44-3.65-5.13,1.46-6.9,12.16-.89,12.16-.89l.32-4.62s.81-1.58-4.87-2.09-16.7-1.07-16.7-1.07l.09,2.91s-19.3.25-20.35-.32-1.13-6.33-1.13-6.33-14.51,1-15-.51-1.7-14.5-1.7-14.5-10.22-1.08-11.68-1l-.41,4.12s11.68,5.44,5.43,17.35-29.58,14.82-31.61,3c0,0-7.13-1.08-5-4.69,0,0-2.84-3-3.49-3.86a22.89,22.89,0,0,0-4.86-3.87c-1.37-.69-9-5.51-6.72-11.27l-208-.32-2.1,7.22s-80.57,1-97.11,8.11-47.33,19-53,22.54-3.72,15.7-3.72,15.7,9.89.51,9.56,5.83-1,18.75-1,18.75,0,5.44-5.67,5.57a120.24,120.24,0,0,1-14.83-1.14s-6.32-.38-6.32-6.27a134.76,134.76,0,0,1,1.21-14.63s.25-8.36,10.22-8.17c0,0,1-12-1.95-16.53S12,389.87,12,389.87s-4.14-7,1.21-11.4,73.92-52.63,73.92-52.63.73-1.52,7.79-1.9,456.42-1.71,463.47.19c0,0,14.55,10.12,31.4,22.89,1.63-1.35,3.81-3.47,3-4.46-1.3-1.52-.17-5.7-.17-5.7l21.08.63c-2.43,1.65-15.24,7.1-15.24,7.1l-3.9,6.05c19.21,14.78,39.88,32,44.83,41.32C639.37,392,642.78,392.15,637.67,400.13ZM603.32,460c-2.91-1.8-7.47,3.08-4.07,6.79,0,0,3.22,3.56,4.86,0S604.33,460.64,603.32,460ZM495.9,496.16s-4.25-.66-5.22,0-10.64,15.3-10.94,15.77c.42-.19,11.69-5.34,13.37-6.55s9.85-5.89,13.49-4.75V499a27.69,27.69,0,0,0-3.27-1.62C503,497.4,496.75,498.64,495.9,496.16Zm.73-8.83v.85a8.59,8.59,0,0,1,4,1.43c2.32-.67,4.26,1.05,4.86,1.71s2.56,0,2.56,0c.73-2.56,1-20.71,1-20.71ZM545.51,396a30.45,30.45,0,0,1,.73,3.66c2.43.38,7-4.09,7-4.09S545.27,395.61,545.51,396Zm20.73,1.33c.61,2.66,13,12.78,13,12.78.43-1.09,6.27-3.14,9.18-4.28s2.92-.71,6.87,1.67S611,424.78,611,424.78c1.4-2.71,5.17-1.76,5.23-1.95s4.32-7.17,4.32-7.17C602.84,402.74,566.24,397.37,566.24,397.37Z"/></g></svg>